<svg width="50" height="50" viewBox="0 0 50 50" fill="none" xmlns="http://www.w3.org/2000/svg">
<path d="M0 0H50V50H0V0Z" fill="#FF385C"/>
<path d="M30.1156 17.7108C30.0386 17.1715 29.8498 16.6629 29.5493 16.1852C29.2488 15.7075 28.8635 15.2953 28.3935 14.9485C27.9235 14.6018 27.3919 14.3283 26.7986 14.1279C26.2053 13.9276 25.585 13.8274 24.9378 13.8274C24.3522 13.8274 23.8051 13.8891 23.2966 14.0124C22.788 14.1356 22.345 14.3244 21.9674 14.5787C21.5899 14.833 21.2894 15.1604 21.0659 15.5611C20.8425 15.9618 20.7308 16.4395 20.7308 16.9943C20.7308 17.6877 20.881 18.2386 21.1815 18.647C21.482 19.0554 21.8673 19.3906 22.3373 19.6525C22.8073 19.9145 23.3274 20.1225 23.8976 20.2766C24.4678 20.4307 25.0225 20.6003 25.5619 20.7852L31.9186 22.9118C32.7969 23.22 33.6214 23.6438 34.3919 24.1832C35.1624 24.7225 35.8289 25.3775 36.3914 26.148C36.9539 26.9185 37.3969 27.8045 37.7205 28.8061C38.0441 29.8077 38.206 30.9327 38.206 32.181C38.206 33.8762 37.8939 35.4249 37.2698 36.8272C36.6457 38.2296 35.7711 39.4316 34.6462 40.4332C33.5212 41.4348 32.1728 42.213 30.6009 42.7678C29.0291 43.3227 27.2877 43.6001 25.3769 43.6C24.0362 43.6 22.7687 43.4497 21.5744 43.1492C20.3801 42.8487 19.2899 42.4134 18.3037 41.8432C17.3175 41.273 16.4544 40.5911 15.7146 39.7975C14.9748 39.0039 14.3969 38.1062 13.981 37.1045H11.6V30.1467H19.9679V31.5798C19.9679 32.2733 20.0796 32.9128 20.3031 33.4984C20.5265 34.084 20.8617 34.5925 21.3086 35.024C21.7555 35.4555 22.3179 35.7907 22.996 36.0295C23.6741 36.2684 24.4677 36.3878 25.377 36.3878C26.7639 36.3878 27.8195 36.0681 28.5438 35.4285C29.2681 34.789 29.6302 33.8991 29.6302 32.7588C29.6302 32.1732 29.5031 31.6839 29.2488 31.2909C28.9945 30.898 28.6671 30.5667 28.2664 30.297C27.8657 30.0273 27.4188 29.8 26.9257 29.6151C26.4326 29.4301 25.9471 29.2606 25.4694 29.1065L20.1761 27.396C19.1744 27.0878 18.2074 26.6563 17.2751 26.1015C16.3427 25.5467 15.5183 24.8533 14.8018 24.0211C14.0852 23.1889 13.515 22.2142 13.0912 21.0969C12.6674 19.9796 12.4555 18.7044 12.4555 17.2713C12.4555 15.607 12.7638 14.1237 13.3802 12.8216C13.9966 11.5194 14.8596 10.4214 15.9692 9.52763C17.0788 8.63383 18.3964 7.95577 19.9219 7.49346C21.4474 7.03114 23.1194 6.79998 24.9379 6.79999C26.371 6.79999 27.6963 6.96565 28.9137 7.29697C30.1311 7.62829 31.2214 8.07134 32.1845 8.6261C33.1476 9.18087 33.9643 9.81654 34.6348 10.5331C35.3053 11.2497 35.8177 11.9932 36.172 12.7638H38.4835V19.7446H30.1156L30.1156 17.7108Z" fill="white"/>
</svg>
