<svg width="64" height="64" viewBox="0 0 64 64" fill="none" xmlns="http://www.w3.org/2000/svg">
<g id="Frame" clip-path="url(#clip0_92_2421)">
<path id="Vector" d="M53.1998 10.8C41.4998 -0.949951 22.4998 -0.949951 10.7998 10.8C-0.950195 22.5 -0.950195 41.5 10.7998 53.2001C16.6498 59.05 24.2998 62 31.9998 62C35.6998 62 39.4498 61.3 42.9498 59.9501C46.6998 58.5 50.1998 56.25 53.1998 53.25C57.9998 48.4501 60.8498 42.4001 61.6998 36.1501C62.9498 27.1501 60.1498 17.7 53.1998 10.8Z" fill="white"/>
<path id="Vector_2" d="M32 50C41.9411 50 50 41.9411 50 32C50 22.0589 41.9411 14 32 14C22.0589 14 14 22.0589 14 32C14 41.9411 22.0589 50 32 50Z" fill="#8CE5C3"/>
<path id="Vector_3" d="M32 39.5C31.6 39.5 31.2 39.35 30.95 39.05L23.45 31.55C22.85 30.95 22.85 30.0001 23.45 29.4501C24.05 28.8501 25 28.8501 25.55 29.4501L31.9 35.8L45.85 19.5C46.4 18.85 47.35 18.8 47.95 19.35C48.6 19.9 48.65 20.85 48.1 21.45L33.1 38.9501C32.85 39.2501 32.45 39.4501 32 39.4501C32.05 39.5001 32 39.5 32 39.5Z" fill="#444B54"/>
<path id="Vector_4" d="M32 63.5C14.65 63.5 0.5 49.35 0.5 32C0.5 14.65 14.65 0.5 32 0.5C49.35 0.5 63.5 14.65 63.5 32C63.5 49.35 49.35 63.5 32 63.5ZM32 3.5C16.3 3.5 3.5 16.3 3.5 32C3.5 47.7 16.3 60.5 32 60.5C47.7 60.5 60.5 47.7 60.5 32C60.5 16.3 47.7 3.5 32 3.5Z" fill="#444B54"/>
</g>
<defs>
<clipPath id="clip0_92_2421">
<rect width="64" height="64" fill="white"/>
</clipPath>
</defs>
</svg>
